<svg width="47" height="59" viewBox="0 0 47 59" fill="none" xmlns="http://www.w3.org/2000/svg">
<path d="M45.9 23.15C45.9 32.4 33.34 48.71 27.05 56.28C25.24 58.46 21.9 58.46 20.11 56.28C13.84 48.71 1.26001 32.4 1.26001 23.15C1.26001 10.82 11.26 0.839996 23.57 0.839996C35.88 0.839996 45.88 10.84 45.88 23.15H45.89H45.9Z" fill="#333333"/>
<path d="M23.57 58.41C22.08 58.41 20.68 57.74 19.73 56.59C12.65 48.04 0.77002 32.33 0.77002 23.15C0.77002 10.57 11 0.339996 23.58 0.339996C36.16 0.339996 46.12 10.3 46.38 22.65V23.15C46.39 32.38 34.51 48.07 27.43 56.6C26.47 57.75 25.07 58.41 23.57 58.41ZM23.57 1.34C11.54 1.34 1.76004 11.12 1.76004 23.15C1.76004 32.35 14.86 49.16 20.49 55.96C21.25 56.88 22.37 57.41 23.56 57.41C24.76 57.41 25.89 56.88 26.65 55.96C32.18 49.3 44.92 33 45.37 23.65V23.15C45.37 11.12 35.59 1.34 23.56 1.34H23.57Z" fill="white"/>
<path d="M19.06 37.42C18.97 37.42 18.88 37.42 18.78 37.42C18.62 37.42 18.46 37.42 18.3 37.39C18.13 37.37 17.96 37.35 17.79 37.33C17.51 37.3 17.23 37.25 16.96 37.19C16.13 37.01 15.34 36.71 14.6 36.31C14.23 36.11 13.9201 35.83 13.7001 35.47C13.5301 35.19 13.42 34.89 13.38 34.57C13.34 34.29 13.36 34 13.41 33.72C13.47 33.4 13.52 33.08 13.58 32.76C13.63 32.44 13.69 32.12 13.74 31.8C13.79 31.52 13.84 31.23 13.88 30.95C13.93 30.66 13.98 30.37 14.03 30.08C14.08 29.79 14.13 29.51 14.18 29.22C14.23 28.93 14.28 28.65 14.33 28.36C14.38 28.04 14.44 27.72 14.5 27.39C14.56 27.07 14.61 26.75 14.66 26.42C14.71 26.14 14.76 25.85 14.8 25.57C14.85 25.29 14.9001 25 14.9501 24.72C15.0001 24.4 15.06 24.09 15.12 23.77C15.16 23.56 15.19 23.35 15.24 23.14C15.37 22.59 15.64 22.12 16.03 21.71C16.17 21.56 16.33 21.43 16.49 21.31C16.64 21.19 16.7901 21.07 16.9501 20.96C17.0001 20.92 17.05 20.87 17.1 20.83C17.32 20.64 17.48 20.41 17.59 20.14C17.66 19.98 17.71 19.81 17.76 19.64C18.21 17.98 18.66 16.31 19.12 14.65C19.33 13.89 19.54 13.13 19.74 12.37C19.74 12.34 19.76 12.3 19.76 12.27C19.76 12.21 19.75 12.16 19.71 12.12C19.69 12.1 19.67 12.08 19.65 12.06C19.28 11.74 19.1 11.34 19.15 10.85C19.2 10.34 19.4601 9.96 19.9201 9.72C20.1401 9.61 20.37 9.57001 20.61 9.60001C20.89 9.63001 21.16 9.68001 21.43 9.73001C21.7 9.78001 21.96 9.83 22.2301 9.88C22.5301 9.94 22.83 9.98999 23.13 10.05C23.23 10.07 23.33 10.09 23.43 10.11C23.98 10.24 24.39 10.68 24.4801 11.24C24.55 11.64 24.46 12.01 24.21 12.34C24.08 12.52 23.9101 12.64 23.7001 12.73C23.6601 12.75 23.62 12.77 23.58 12.79C23.49 12.84 23.44 12.92 23.41 13.02C23.41 13.06 23.3901 13.1 23.3901 13.14C23.3801 13.3 23.37 13.45 23.36 13.61C23.34 13.84 23.33 14.07 23.31 14.31C23.3 14.51 23.28 14.71 23.27 14.91C23.26 15.11 23.2401 15.31 23.2301 15.5C23.22 15.68 23.2 15.87 23.19 16.05C23.17 16.26 23.1601 16.47 23.1401 16.68C23.1301 16.87 23.11 17.05 23.1 17.24C23.09 17.44 23.07 17.64 23.06 17.84C23.05 18.02 23.03 18.21 23.02 18.39C23 18.6 22.99 18.82 22.97 19.03C22.96 19.22 22.94 19.42 22.93 19.61C22.92 19.81 22.9001 20.02 22.8901 20.22C22.8801 20.43 22.85 20.64 22.85 20.86C22.85 21.4 23.01 21.89 23.32 22.34C23.4 22.46 23.49 22.58 23.57 22.7C23.77 23.01 23.91 23.34 24 23.7C24.05 23.92 24.08 24.14 24.08 24.37C24.08 24.69 24.05 25.01 24 25.33C23.94 25.65 23.89 25.96 23.83 26.28C23.77 26.6 23.7201 26.92 23.6701 27.24C23.6201 27.52 23.57 27.81 23.53 28.09C23.48 28.38 23.43 28.67 23.38 28.96C23.33 29.25 23.2801 29.55 23.2301 29.84C23.18 30.16 23.12 30.48 23.07 30.8C23.02 31.12 22.96 31.44 22.91 31.76C22.86 32.08 22.8 32.4 22.75 32.72C22.7 33.03 22.64 33.35 22.59 33.66C22.53 33.99 22.4801 34.31 22.4201 34.64C22.3801 34.86 22.35 35.08 22.31 35.29C22.27 35.51 22.2301 35.72 22.1401 35.93C21.8301 36.68 21.28 37.14 20.49 37.32C20.37 37.35 20.25 37.36 20.13 37.37C20 37.38 19.8601 37.4 19.7301 37.41C19.66 37.41 19.59 37.42 19.52 37.42C19.38 37.42 19.24 37.42 19.11 37.42H19.06ZM22.74 28.64C22.74 28.31 22.7 28.01 22.63 27.72C22.46 27.03 22.12 26.43 21.61 25.93C20.89 25.22 20.02 24.85 19.01 24.8C18.64 24.78 18.2801 24.82 17.9201 24.9C17.2001 25.07 16.57 25.42 16.05 25.95C15.56 26.45 15.23 27.04 15.07 27.73C14.99 28.05 14.97 28.36 15.01 28.69C15.04 28.95 15.1001 29.2 15.1701 29.46C15.3001 29.91 15.47 30.35 15.65 30.78C15.93 31.43 16.26 32.06 16.6 32.67C16.87 33.15 17.15 33.62 17.44 34.08C17.71 34.51 18.3001 34.6 18.6701 34.26C18.7101 34.22 18.76 34.18 18.8 34.14C19.45 33.55 20.09 32.94 20.69 32.3C21.06 31.9 21.41 31.49 21.74 31.06C21.97 30.75 22.19 30.42 22.37 30.08C22.48 29.87 22.5801 29.65 22.6401 29.42C22.7101 29.16 22.73 28.9 22.74 28.67V28.64ZM14.4201 33.22C14.4201 33.22 14.41 33.27 14.4 33.3C14.38 33.44 14.35 33.58 14.33 33.72C14.31 33.86 14.28 34 14.27 34.15C14.25 34.52 14.35 34.86 14.59 35.15C14.73 35.31 14.89 35.44 15.08 35.53C15.79 35.89 16.53 36.16 17.31 36.32C17.55 36.37 17.79 36.41 18.03 36.44C18.19 36.46 18.34 36.47 18.5 36.48C18.69 36.49 18.87 36.5 19.06 36.5C19.34 36.5 19.63 36.49 19.91 36.46C20.03 36.45 20.14 36.43 20.26 36.41C20.73 36.31 21.05 36.03 21.22 35.57C21.26 35.46 21.29 35.35 21.31 35.24C21.35 35.02 21.39 34.79 21.43 34.57C21.43 34.55 21.43 34.53 21.43 34.51C21.4 34.51 21.37 34.51 21.35 34.52C21.1 34.56 20.86 34.6 20.61 34.63C20.32 34.66 20.0301 34.68 19.7301 34.69C19.3401 34.7 18.95 34.69 18.56 34.65C18.26 34.62 17.9601 34.58 17.6701 34.52C16.9301 34.38 16.23 34.15 15.55 33.84C15.19 33.68 14.84 33.49 14.51 33.29C14.48 33.27 14.4501 33.25 14.4201 33.24V33.22Z" fill="white"/>
<path d="M29.86 35.56C29.58 35.56 29.27 35.54 28.96 35.52C28.72 35.5 28.49 35.46 28.26 35.38C27.72 35.2 27.3 34.87 27 34.39C26.88 34.2 26.81 33.99 26.75 33.78C26.7 33.58 26.66 33.37 26.63 33.16C26.57 32.83 26.52 32.51 26.46 32.18C26.41 31.86 26.35 31.54 26.3 31.22C26.25 30.93 26.2 30.65 26.15 30.36C26.1 30.04 26.04 29.73 25.99 29.41C25.94 29.09 25.88 28.77 25.83 28.45C25.78 28.13 25.7201 27.81 25.6701 27.49C25.6201 27.17 25.56 26.84 25.51 26.52C25.46 26.2 25.4 25.88 25.35 25.55C25.29 25.23 25.24 24.91 25.18 24.58C25.13 24.27 25.07 23.95 25.02 23.64C24.99 23.48 24.96 23.32 24.94 23.16C24.9 22.84 24.8801 22.53 24.9201 22.21C24.9601 21.87 25.06 21.55 25.2 21.24C25.27 21.08 25.36 20.92 25.46 20.77C25.56 20.62 25.66 20.47 25.75 20.32C25.88 20.12 25.98 19.91 26.04 19.68C26.08 19.51 26.11 19.34 26.12 19.17C26.12 18.99 26.12 18.81 26.11 18.64C26.09 18.46 26.08 18.28 26.07 18.1C26.05 17.89 26.04 17.68 26.02 17.47C26.01 17.28 25.99 17.1 25.98 16.91C25.97 16.71 25.95 16.5 25.93 16.3C25.92 16.12 25.9001 15.94 25.8901 15.76C25.8701 15.55 25.86 15.33 25.84 15.12C25.83 14.93 25.81 14.74 25.8 14.54C25.79 14.34 25.77 14.14 25.76 13.94C25.75 13.75 25.73 13.57 25.72 13.38C25.7 13.17 25.6901 12.95 25.6701 12.74C25.6601 12.55 25.64 12.36 25.63 12.16C25.61 11.94 25.6 11.72 25.58 11.5C25.58 11.39 25.57 11.29 25.56 11.18C25.56 11.16 25.56 11.15 25.56 11.13C25.56 11.03 25.5 10.96 25.41 10.92C25.36 10.9 25.32 10.89 25.27 10.87C24.89 10.7 24.64 10.41 24.52 10.01C24.4 9.59001 24.45 9.18001 24.7 8.82001C24.91 8.51001 25.2 8.32 25.56 8.25C25.83 8.19 26.1101 8.14 26.3901 8.09C26.6901 8.03 26.99 7.98001 27.3 7.92001C27.58 7.87001 27.8601 7.81999 28.1401 7.76999C28.2801 7.74999 28.41 7.73001 28.55 7.73001C28.88 7.75001 29.16 7.87 29.4 8.09C29.65 8.34 29.79 8.63999 29.82 8.98999C29.85 9.39999 29.73 9.75 29.46 10.06C29.43 10.09 29.39 10.12 29.36 10.16C29.34 10.18 29.33 10.19 29.31 10.21C29.23 10.28 29.2 10.37 29.23 10.48C29.26 10.58 29.28 10.68 29.31 10.78C29.61 11.88 29.9 12.97 30.2 14.07C30.33 14.54 30.44 15 30.58 15.47C30.73 15.98 30.86 16.49 31 17C31.09 17.31 31.17 17.61 31.25 17.92C31.3 18.11 31.37 18.3 31.47 18.47C31.64 18.78 31.8801 19.03 32.1701 19.23C32.33 19.34 32.48 19.45 32.63 19.58C32.9 19.81 33.14 20.06 33.33 20.36C33.51 20.64 33.63 20.94 33.72 21.26C33.78 21.48 33.82 21.7 33.86 21.93C33.91 22.22 33.96 22.51 34.01 22.8C34.06 23.12 34.1201 23.44 34.1701 23.76C34.2201 24.05 34.27 24.34 34.32 24.63C34.37 24.92 34.42 25.2 34.47 25.49C34.52 25.78 34.57 26.07 34.62 26.36C34.67 26.65 34.72 26.93 34.77 27.22C34.82 27.51 34.8701 27.79 34.9201 28.08C34.9701 28.37 35.02 28.66 35.07 28.95C35.12 29.24 35.17 29.52 35.22 29.81C35.27 30.1 35.32 30.39 35.37 30.68C35.44 31.07 35.5 31.45 35.57 31.84C35.6 32.04 35.63 32.24 35.63 32.44C35.62 32.84 35.54 33.22 35.34 33.57C35.16 33.89 34.9 34.14 34.6 34.35C34.43 34.46 34.24 34.55 34.05 34.64C33.42 34.95 32.76 35.18 32.08 35.34C31.77 35.41 31.46 35.47 31.15 35.51C30.74 35.56 30.33 35.58 29.9 35.59L29.86 35.56ZM25.83 22.53C25.83 22.53 25.85 22.54 25.86 22.54C26.04 22.57 26.23 22.61 26.41 22.64C26.78 22.7 27.14 22.73 27.51 22.75C27.92 22.77 28.34 22.75 28.75 22.71C29.06 22.68 29.37 22.63 29.68 22.56C30.76 22.33 31.76 21.89 32.68 21.29C32.7 21.28 32.71 21.27 32.73 21.25C32.69 21.14 32.64 21.04 32.58 20.94C32.43 20.67 32.22 20.44 31.97 20.25C31.84 20.15 31.7 20.05 31.57 19.95C30.97 19.5 30.57 18.92 30.37 18.2C30.21 17.62 30.0501 17.04 29.8901 16.46C29.8901 16.43 29.87 16.41 29.86 16.38C29.85 16.34 29.83 16.31 29.82 16.27C29.38 14.62 28.93 12.98 28.49 11.33C28.43 11.12 28.38 10.9 28.32 10.69C28.32 10.66 28.31 10.62 28.28 10.58C28.08 10.61 27.88 10.65 27.68 10.69C27.48 10.73 27.28 10.76 27.09 10.8C26.89 10.84 26.69 10.87 26.49 10.91C26.49 10.93 26.49 10.95 26.49 10.97C26.49 11.08 26.5 11.18 26.51 11.29C26.52 11.5 26.54 11.71 26.55 11.93C26.56 12.12 26.58 12.31 26.59 12.51C26.61 12.72 26.6201 12.93 26.6401 13.15C26.6501 13.34 26.67 13.52 26.68 13.71C26.7 13.92 26.71 14.13 26.73 14.35C26.74 14.54 26.76 14.72 26.77 14.91C26.78 15.11 26.8 15.32 26.82 15.52C26.83 15.71 26.85 15.9 26.86 16.1C26.88 16.31 26.89 16.52 26.91 16.74C26.92 16.92 26.94 17.11 26.95 17.29C26.97 17.56 26.99 17.82 27.01 18.09C27.02 18.27 27.04 18.46 27.05 18.64C27.07 18.9 27.07 19.16 27.05 19.41C27.02 19.67 26.97 19.93 26.88 20.18C26.78 20.47 26.64 20.74 26.46 21C26.35 21.16 26.25 21.31 26.15 21.48C26.04 21.68 25.94 21.89 25.9 22.12C25.87 22.25 25.86 22.39 25.84 22.52C25.84 22.53 25.84 22.54 25.84 22.55L25.83 22.53ZM26.78 26.51C26.78 26.6 26.8 26.75 26.81 26.89C26.83 27.08 26.89 27.26 26.97 27.43C27.04 27.58 27.12 27.73 27.21 27.87C27.39 28.15 27.58 28.41 27.79 28.66C28.17 29.11 28.57 29.53 29 29.94C29.54 30.46 30.11 30.95 30.69 31.43C30.76 31.49 30.83 31.55 30.9 31.6C31 31.68 31.13 31.63 31.18 31.55C31.19 31.53 31.21 31.51 31.22 31.48C31.52 30.95 31.8 30.41 32.07 29.87C32.34 29.32 32.59 28.76 32.81 28.18C32.98 27.74 33.13 27.29 33.22 26.82C33.27 26.6 33.3 26.37 33.31 26.15C33.31 26.05 33.31 25.94 33.29 25.84C33.22 25.43 33.07 25.05 32.85 24.7C32.31 23.86 31.39 23.3 30.35 23.22C30.03 23.2 29.71 23.22 29.4 23.28C28.61 23.45 27.96 23.85 27.47 24.48C27.02 25.05 26.79 25.71 26.78 26.5V26.51ZM26.77 28.31C26.77 28.31 26.77 28.31 26.76 28.31C26.76 28.32 26.76 28.34 26.76 28.35C26.79 28.53 26.82 28.71 26.85 28.89C26.95 29.5 27.06 30.12 27.16 30.73C27.24 31.19 27.3101 31.64 27.3901 32.1C27.4601 32.5 27.53 32.9 27.59 33.31C27.62 33.48 27.67 33.65 27.74 33.8C27.9 34.13 28.15 34.36 28.5 34.49C28.65 34.54 28.8 34.57 28.95 34.58C29.06 34.58 29.16 34.6 29.27 34.6C29.47 34.6 29.67 34.62 29.86 34.62C30.09 34.62 30.32 34.62 30.56 34.59C30.82 34.57 31.07 34.54 31.33 34.5C31.76 34.43 32.19 34.32 32.6 34.18C33.05 34.03 33.49 33.84 33.91 33.61C34.4 33.34 34.63 32.92 34.65 32.37C34.65 32.23 34.63 32.09 34.61 31.95C34.58 31.76 34.54 31.57 34.51 31.38C34.51 31.37 34.51 31.36 34.49 31.34C34.43 31.37 34.38 31.4 34.33 31.43C34.13 31.55 33.92 31.67 33.7 31.77C32.98 32.13 32.22 32.4 31.44 32.57C31.09 32.65 30.73 32.71 30.37 32.74C30.12 32.77 29.86 32.78 29.6 32.78C29.43 32.78 29.27 32.78 29.1 32.78C29.04 32.78 28.97 32.77 28.91 32.75C28.7 32.67 28.59 32.46 28.61 32.27C28.64 32.04 28.79 31.89 29.01 31.86C29.09 31.85 29.16 31.86 29.24 31.86C29.52 31.86 29.8 31.86 30.07 31.83C30.11 31.83 30.14 31.83 30.19 31.81C30.16 31.79 30.14 31.77 30.12 31.75C29.83 31.5 29.53 31.25 29.24 30.99C28.68 30.49 28.1401 29.98 27.6401 29.42C27.3301 29.07 27.03 28.71 26.77 28.32C26.77 28.31 26.75 28.29 26.74 28.28L26.77 28.31ZM33.8 27.13C33.8 27.13 33.79 27.13 33.78 27.13C33.78 27.15 33.77 27.17 33.76 27.2C33.68 27.54 33.57 27.87 33.45 28.2C33.19 28.91 32.89 29.59 32.55 30.27C32.36 30.66 32.15 31.05 31.95 31.43C31.94 31.45 31.93 31.48 31.91 31.51C31.95 31.51 31.98 31.49 32 31.49C32.69 31.28 33.34 30.98 33.96 30.6C34.05 30.55 34.13 30.49 34.22 30.44C34.31 30.38 34.35 30.3 34.33 30.2C34.33 30.19 34.33 30.18 34.33 30.17C34.31 30.07 34.3 29.97 34.28 29.86C34.2 29.41 34.12 28.96 34.05 28.5C33.98 28.08 33.91 27.66 33.84 27.24C33.84 27.2 33.83 27.17 33.82 27.13H33.8ZM33.31 24.3C33.31 24.3 33.31 24.27 33.31 24.26C33.2 23.6 33.08 22.93 32.97 22.27C32.97 22.26 32.97 22.24 32.96 22.22C32.93 22.23 32.9101 22.24 32.8901 22.26C32.6901 22.38 32.49 22.5 32.28 22.6C32.08 22.7 31.88 22.79 31.68 22.88C31.66 22.88 31.64 22.89 31.62 22.92C31.67 22.94 31.72 22.96 31.76 22.99C31.81 23.01 31.85 23.03 31.9 23.06C31.95 23.09 32 23.11 32.04 23.14C32.08 23.17 32.1301 23.19 32.1701 23.22C32.2101 23.25 32.26 23.28 32.3 23.31C32.34 23.34 32.38 23.37 32.43 23.4C32.47 23.43 32.52 23.47 32.56 23.5C32.6 23.53 32.64 23.57 32.68 23.6C32.72 23.63 32.76 23.67 32.79 23.7C32.83 23.74 32.86 23.77 32.9 23.81C32.94 23.85 32.97 23.89 33 23.92C33.04 23.96 33.07 24 33.11 24.04C33.14 24.08 33.17 24.12 33.21 24.16C33.24 24.2 33.27 24.24 33.31 24.29V24.3ZM26.28 25.52C26.28 25.52 26.29 25.52 26.3 25.52C26.3 25.5 26.31 25.49 26.32 25.47C26.44 25.05 26.62 24.67 26.86 24.32C27.01 24.11 27.17 23.91 27.35 23.74C27.37 23.73 27.3901 23.71 27.3901 23.68C27.3501 23.68 27.32 23.68 27.29 23.68C27.12 23.67 26.94 23.66 26.77 23.64C26.52 23.61 26.26 23.58 26.01 23.53C25.99 23.53 25.98 23.53 25.96 23.54C25.96 23.57 25.96 23.6 25.96 23.64C25.98 23.78 26.01 23.92 26.03 24.06C26.08 24.38 26.14 24.7 26.19 25.02C26.22 25.2 26.25 25.37 26.28 25.55V25.52Z" fill="white"/>
<path d="M22.1401 28.65C22.1401 28.81 22.1301 29.02 22.0701 29.22C22.0201 29.41 21.9401 29.58 21.85 29.75C21.7101 30.02 21.54 30.28 21.36 30.53C21.07 30.93 20.7501 31.31 20.4201 31.68C19.8001 32.37 19.13 33.02 18.43 33.64C18.37 33.69 18.31 33.75 18.25 33.8C18.21 33.84 18.16 33.85 18.11 33.85C18.05 33.85 18 33.82 17.97 33.78C17.95 33.76 17.94 33.74 17.93 33.72C17.49 33.01 17.06 32.29 16.68 31.54C16.39 30.97 16.12 30.39 15.91 29.79C15.8 29.5 15.71 29.2 15.65 28.89C15.62 28.75 15.6 28.61 15.59 28.47C15.57 28.24 15.6101 28.01 15.6701 27.79C15.9101 26.89 16.46 26.22 17.27 25.78C17.61 25.59 17.98 25.48 18.36 25.43C19.32 25.29 20.31 25.59 21.02 26.22C21.55 26.69 21.9 27.27 22.06 27.96C22.11 28.16 22.13 28.41 22.13 28.66L22.1401 28.65ZM17.5 29.71C17.5 29.98 17.77 30.17 18.02 30.07C18.05 30.06 18.07 30.05 18.1 30.03C18.21 29.97 18.32 29.92 18.43 29.86C18.58 29.78 18.77 29.79 18.9 29.93C18.91 29.94 18.92 29.95 18.94 29.97C19.03 30.06 19.12 30.14 19.21 30.23C19.31 30.32 19.43 30.36 19.56 30.32C19.75 30.27 19.8801 30.09 19.85 29.9C19.84 29.83 19.8301 29.76 19.8201 29.7C19.8101 29.62 19.79 29.55 19.78 29.47C19.75 29.29 19.8201 29.15 19.9801 29.06C20.0001 29.06 20.02 29.04 20.03 29.03C20.14 28.97 20.24 28.92 20.35 28.86C20.41 28.83 20.46 28.78 20.5 28.72C20.64 28.5 20.52 28.19 20.25 28.15C20.11 28.13 19.9601 28.1 19.8201 28.09C19.6701 28.07 19.5101 27.96 19.4801 27.76C19.4701 27.69 19.46 27.61 19.44 27.54C19.43 27.46 19.4201 27.38 19.3901 27.3C19.3501 27.15 19.24 27.06 19.09 27.04C18.94 27.02 18.81 27.07 18.72 27.2C18.7 27.23 18.6901 27.26 18.6701 27.29C18.6101 27.41 18.56 27.52 18.5 27.64C18.45 27.75 18.36 27.81 18.25 27.84C18.19 27.85 18.1301 27.84 18.0701 27.84C17.9401 27.82 17.81 27.8 17.68 27.78C17.57 27.76 17.46 27.79 17.38 27.87C17.24 28 17.19 28.24 17.36 28.42C17.4 28.46 17.4401 28.5 17.4801 28.53C17.5501 28.6 17.62 28.67 17.69 28.73C17.79 28.83 17.8401 29 17.7601 29.16C17.7501 29.19 17.73 29.21 17.72 29.24C17.67 29.34 17.6201 29.44 17.5701 29.54C17.5401 29.6 17.52 29.66 17.52 29.72L17.5 29.71Z" fill="white"/>
<path d="M29.14 27.79C29.14 27.73 29.16 27.66 29.16 27.59C29.17 27.5 29.18 27.42 29.19 27.33C29.21 27.15 29.13 27.02 28.97 26.94C28.86 26.88 28.74 26.83 28.63 26.78C28.61 26.78 28.59 26.76 28.58 26.75C28.4 26.66 28.36 26.49 28.37 26.37C28.39 26.2 28.5 26.08 28.68 26.04C28.78 26.02 28.87 26 28.97 25.99C29.01 25.99 29.05 25.97 29.1 25.97C29.29 25.94 29.4 25.79 29.42 25.62C29.43 25.48 29.45 25.35 29.47 25.21C29.51 24.94 29.79 24.83 30 24.91C30.08 24.95 30.14 25 30.19 25.08C30.25 25.18 30.3 25.29 30.36 25.39C30.37 25.41 30.38 25.43 30.39 25.45C30.48 25.61 30.63 25.68 30.81 25.64C30.94 25.62 31.06 25.59 31.19 25.57C31.22 25.57 31.26 25.56 31.29 25.56C31.45 25.56 31.56 25.63 31.63 25.77C31.7 25.91 31.69 26.04 31.59 26.17C31.57 26.19 31.55 26.21 31.53 26.23C31.44 26.32 31.36 26.41 31.27 26.51C31.22 26.56 31.19 26.62 31.17 26.69C31.15 26.79 31.17 26.88 31.21 26.96C31.27 27.07 31.33 27.18 31.39 27.29C31.4 27.32 31.42 27.34 31.43 27.37C31.54 27.61 31.37 27.89 31.1 27.9C31.04 27.9 30.98 27.89 30.92 27.86C30.8 27.8 30.68 27.75 30.55 27.69C30.5 27.67 30.44 27.65 30.39 27.65C30.27 27.65 30.18 27.69 30.1 27.77C30.01 27.86 29.93 27.95 29.85 28.04C29.83 28.06 29.81 28.08 29.79 28.1C29.68 28.21 29.52 28.24 29.38 28.17C29.24 28.11 29.15 27.97 29.15 27.8L29.14 27.79Z" fill="white"/>
</svg>
