<svg width="47" height="59" viewBox="0 0 47 59" fill="none" xmlns="http://www.w3.org/2000/svg">
<path d="M45.7 23.58C45.7 32.83 33.14 49.14 26.85 56.71C25.04 58.89 21.7 58.89 19.91 56.71C13.64 49.14 1.06 32.83 1.06 23.58C1.06 11.25 11.06 1.26999 23.37 1.26999C35.68 1.26999 45.68 11.27 45.68 23.58H45.69H45.7Z" fill="#333333"/>
<path d="M23.37 58.84C21.88 58.84 20.48 58.17 19.53 57.02C12.45 48.47 0.570007 32.76 0.570007 23.58C0.570007 11 10.8 0.769989 23.38 0.769989C35.96 0.769989 45.92 10.73 46.18 23.08V23.58C46.19 32.81 34.31 48.5 27.23 57.03C26.27 58.18 24.87 58.84 23.37 58.84ZM23.38 1.76999C11.35 1.76999 1.57001 11.55 1.57001 23.58C1.57001 32.78 14.67 49.59 20.3 56.39C21.06 57.31 22.18 57.84 23.37 57.84C24.57 57.84 25.69 57.31 26.46 56.39C31.99 49.73 44.73 33.43 45.18 24.08V23.58C45.18 11.55 35.4 1.76999 23.37 1.76999H23.38Z" fill="white"/>
<path d="M26.26 8.26002L26.54 9.13002C26.65 9.46002 26.95 9.68001 27.29 9.68001H28.2C28.97 9.68001 29.2799 10.66 28.6599 11.11L27.92 11.65C27.64 11.85 27.53 12.21 27.63 12.53L27.9099 13.4C28.1499 14.13 27.3099 14.73 26.6899 14.28L25.95 13.74C25.67 13.54 25.2999 13.54 25.0199 13.74L24.2799 14.28C23.6599 14.73 22.8299 14.12 23.0599 13.4L23.3399 12.53C23.4499 12.2 23.3299 11.85 23.0499 11.65L22.3099 11.11C21.6899 10.66 22.0099 9.68001 22.7699 9.68001H23.6799C24.0199 9.68001 24.3299 9.46002 24.4299 9.13002L24.7099 8.26002C24.9499 7.53002 25.9799 7.53002 26.2099 8.26002H26.26Z" fill="white"/>
<path d="M33.03 13.03L33.17 13.46C33.22 13.62 33.37 13.73 33.55 13.73H34.01C34.39 13.73 34.55 14.22 34.24 14.45L33.87 14.72C33.73 14.82 33.67 15 33.73 15.16L33.87 15.59C33.99 15.95 33.57 16.26 33.26 16.03L32.89 15.76C32.75 15.66 32.56 15.66 32.43 15.76L32.06 16.03C31.75 16.26 31.33 15.95 31.45 15.59L31.59 15.16C31.64 15 31.59 14.82 31.45 14.72L31.08 14.45C30.77 14.22 30.93 13.73 31.31 13.73H31.77C31.94 13.73 32.09 13.62 32.15 13.46L32.29 13.03C32.41 12.67 32.92 12.67 33.04 13.03H33.03Z" fill="white"/>
<path d="M8.08994 27.91C8.08994 27.84 8.08994 27.76 8.08994 27.69C8.19994 27.57 8.30994 27.45 8.40994 27.33C8.43994 27.29 8.46994 27.24 8.46994 27.2C8.46994 26.52 8.46994 25.84 8.46994 25.16C8.46994 25.13 8.45994 25.09 8.43994 25.06C8.31994 24.85 8.19993 24.63 8.07993 24.42C8.07993 24.3 8.07993 24.19 8.07993 24.07C8.14993 23.82 8.25993 23.6 8.42993 23.41C8.45993 23.38 8.45993 23.31 8.45993 23.26C8.45993 22.94 8.45993 22.63 8.45993 22.31C8.45993 22.26 8.45994 22.21 8.43994 22.17C8.24994 21.91 8.14995 21.61 8.06995 21.3C8.06995 21.15 8.06995 21 8.06995 20.86C8.16995 20.6 8.27994 20.33 8.37994 20.07C8.40994 19.98 8.44995 19.89 8.44995 19.81C8.44995 18.09 8.44995 16.37 8.44995 14.65C8.44995 14.55 8.47995 14.43 8.53995 14.34C8.81995 13.92 9.09995 13.49 9.41995 13.1C10.64 11.58 12.0999 10.37 13.8499 9.51C14.5099 9.19 15.1999 8.94 15.9099 8.73C16.2499 8.63 16.4699 8.71 16.6199 9.04C16.6899 9.21 16.7499 9.38999 16.8199 9.55999C17.3299 10.74 17.8399 11.92 18.3399 13.1C18.4299 13.32 18.5799 13.48 18.7799 13.61C18.8799 13.67 18.9799 13.73 19.0799 13.79C19.4199 13.97 19.6299 14.25 19.7099 14.64C19.9199 15.68 20.1399 16.72 20.3699 17.76C20.4599 18.16 20.5799 18.56 20.7099 18.95C20.8299 19.29 21.0399 19.34 21.3499 19.17C21.4599 19.11 21.5699 19.04 21.6899 19.01C21.9799 18.93 22.2599 18.91 22.4699 19.19C22.7299 19.55 23.0999 19.71 23.5299 19.76C23.8599 19.79 24.1699 19.81 24.4399 19.55C24.5399 19.45 24.7099 19.4 24.8499 19.36C25.2699 19.23 25.7099 19.21 26.1499 19.21C26.2499 19.21 26.3499 19.21 26.3999 19.09C26.4599 18.94 26.58 18.86 26.7299 18.85C27.0499 18.83 27.3799 18.8 27.6899 18.83C29.2499 18.95 30.7999 19.12 32.3399 19.39C33.7599 19.64 35.1599 19.95 36.5099 20.47C37.2799 20.77 38.0099 21.12 38.6499 21.65C38.7499 21.74 38.7999 21.82 38.7899 21.96C38.7899 22.39 38.7899 22.82 38.7899 23.25C38.7899 23.32 38.8199 23.4 38.8599 23.44C39.3099 23.96 39.3099 24.53 38.8699 25.05C38.8199 25.11 38.7899 25.2 38.7899 25.27C38.7899 25.89 38.7899 26.51 38.7899 27.13C38.7899 27.25 38.82 27.32 38.92 27.39C39.29 27.66 39.29 27.98 38.92 28.25C38.83 28.32 38.7899 28.38 38.7999 28.5C38.7999 29.89 38.8099 31.29 38.8199 32.68C38.8199 32.74 38.8199 32.8 38.8199 32.87H8.44995C8.44995 32.8 8.44995 32.73 8.44995 32.67C8.44995 31.27 8.44995 29.87 8.44995 28.48C8.44995 28.42 8.42995 28.35 8.38995 28.3C8.28995 28.17 8.16994 28.06 8.05994 27.94L8.08994 27.91ZM24.8199 32.15C24.8199 32.15 24.8299 32.1 24.8299 32.08C24.8299 30.56 24.8299 29.03 24.8299 27.51C24.8299 27.27 24.7399 27.07 24.5899 26.89C24.2599 26.51 23.6899 26.38 23.1899 26.56C22.7099 26.74 22.4699 27.09 22.4699 27.65C22.4699 29.09 22.4699 30.53 22.4699 31.97C22.4699 32.03 22.4699 32.08 22.4699 32.15H24.8199ZM28.9999 32.15H31.3499C31.3499 32.15 31.3599 32.07 31.3599 32.03C31.3599 30.58 31.3599 29.14 31.3599 27.69C31.3599 27.48 31.2999 27.29 31.1799 27.12C30.8799 26.7 30.2999 26.53 29.7699 26.69C29.2599 26.85 28.9899 27.23 28.9899 27.79C28.9899 29.18 28.9899 30.56 28.9899 31.95V32.13L28.9999 32.15ZM20.9899 32.15V31.99C20.9899 30.58 20.9899 29.16 20.9899 27.75C20.9899 27.26 20.7399 26.91 20.2899 26.73C19.5399 26.44 18.5999 26.9 18.6299 27.85C18.6799 29.22 18.64 30.59 18.64 31.96V32.15H20.9999H20.9899ZM31.3499 25.62C31.3499 25.57 31.3499 25.53 31.3499 25.49C31.3499 24.2 31.3499 22.92 31.3499 21.63C31.3499 21.53 31.3399 21.43 31.3099 21.33C31.1599 20.81 30.59 20.49 29.9799 20.57C29.4 20.65 28.9899 21.09 28.9899 21.64C28.9899 22.86 28.9899 24.09 28.9899 25.31C28.9899 25.36 28.9899 25.4 28.9999 25.45C29.7899 25.51 30.5599 25.56 31.3399 25.61L31.3499 25.62ZM20.9699 25.38C20.9699 25.38 20.9899 25.35 20.9899 25.34C20.9899 24.06 20.9899 22.78 20.9899 21.5C20.9899 21.04 20.59 20.63 20.14 20.57C19.78 20.52 19.45 20.64 19.14 20.82C18.81 21.01 18.64 21.3 18.64 21.69C18.64 22.9 18.64 24.11 18.64 25.32V25.5C19.43 25.46 20.2099 25.42 20.9799 25.38H20.9699ZM17.3299 32.15C17.3299 32.15 17.3399 32.1 17.3399 32.09C17.3399 30.74 17.3399 29.39 17.3399 28.04C17.3399 27.8 17.2399 27.6 17.0899 27.42C16.7999 27.09 16.33 26.97 15.92 27.13C15.5 27.29 15.2399 27.65 15.2399 28.11C15.2399 29.41 15.2399 30.71 15.2399 32.01C15.2399 32.06 15.2399 32.1 15.2499 32.15H17.3299ZM32.6499 32.15H34.7599C34.7599 32.08 34.7599 32.02 34.7599 31.96C34.7599 30.8 34.7599 29.63 34.7599 28.47C34.7599 28.32 34.7599 28.16 34.7599 28.01C34.7199 27.6 34.4999 27.31 34.1199 27.15C33.4099 26.86 32.6599 27.36 32.6599 28.12C32.6599 29.24 32.6599 30.36 32.6599 31.48C32.6599 31.7 32.6599 31.91 32.6599 32.15H32.6499ZM34.7599 25.97C34.7599 25.9 34.7599 25.84 34.7599 25.77C34.7599 24.82 34.7599 23.88 34.7599 22.93C34.7599 22.69 34.7599 22.44 34.7499 22.2C34.7299 21.92 34.5999 21.68 34.3799 21.51C34.0299 21.24 33.6399 21.19 33.2499 21.38C32.8599 21.57 32.6599 21.9 32.6599 22.33C32.6599 23.42 32.6599 24.51 32.6599 25.6C32.6599 25.64 32.6599 25.68 32.6599 25.73C33.3599 25.81 34.0499 25.89 34.7599 25.97ZM17.3399 25.6C17.3399 25.03 17.3399 24.48 17.3399 23.93C17.3399 23.37 17.3399 22.82 17.3399 22.26C17.3399 21.82 17.0099 21.4 16.5999 21.29C15.9799 21.12 15.2399 21.67 15.2399 22.31C15.2399 23.43 15.2399 24.54 15.2399 25.66C15.2399 25.7 15.2399 25.74 15.2499 25.79C15.9499 25.72 16.6399 25.66 17.3399 25.59V25.6ZM14.0099 32.15C14.0099 32.15 14.0199 32.11 14.0199 32.1C14.0199 30.88 14.0299 29.66 14.0199 28.43C14.0199 27.77 13.3999 27.32 12.8199 27.49C12.4199 27.61 12.1299 28.01 12.1199 28.47C12.1199 29.66 12.1199 30.84 12.1199 32.03C12.1199 32.07 12.1199 32.1 12.1199 32.15H13.9999H14.0099ZM35.9899 32.15H37.8799C37.8799 32.1 37.8799 32.06 37.8799 32.01C37.8799 30.86 37.8799 29.7 37.8799 28.55C37.8799 28.47 37.8799 28.38 37.8599 28.3C37.7999 27.89 37.4899 27.56 37.0999 27.48C36.7499 27.41 36.3699 27.57 36.1599 27.9C36.0399 28.09 35.9899 28.29 35.9899 28.52C35.9899 29.69 35.9899 30.86 35.9899 32.03C35.9899 32.07 35.9899 32.1 35.9899 32.15ZM17.3699 19.91V19.73C17.3699 19.03 17.3699 18.32 17.3699 17.62C17.3699 17.32 17.3699 17.02 17.3599 16.71C17.3299 16.16 16.8799 15.79 16.3399 15.88C16.1199 15.92 15.8999 16.01 15.7099 16.11C15.4099 16.28 15.2599 16.55 15.2599 16.91C15.2599 17.94 15.2599 18.96 15.2599 19.99C15.2599 20.04 15.2599 20.09 15.2599 20.16C15.9699 20.07 16.6599 19.99 17.3699 19.9V19.91ZM37.8699 26.44C37.8699 26.38 37.8699 26.34 37.8699 26.29C37.8699 25.28 37.8699 24.27 37.8699 23.26C37.8699 23.19 37.8699 23.12 37.8599 23.05C37.7999 22.53 37.37 22.14 36.89 22.16C36.4 22.18 35.9799 22.6 35.9799 23.12C35.9699 24.09 35.9799 25.06 35.9799 26.02C35.9799 26.11 36.0099 26.14 36.0999 26.15C36.2899 26.17 36.4799 26.2 36.6599 26.23C37.0599 26.29 37.4599 26.36 37.8699 26.43V26.44ZM14.0199 25.93C14.0199 25.86 14.0199 25.8 14.0199 25.75C14.0199 24.87 14.0199 23.98 14.0199 23.1C14.0199 22.97 14.0199 22.85 13.9899 22.72C13.8999 22.21 13.5799 21.94 13.1299 21.97C12.5399 22.02 12.1199 22.47 12.1199 23.05C12.1199 24.05 12.1199 25.04 12.1199 26.04C12.1199 26.09 12.1199 26.14 12.1199 26.19C12.7599 26.1 13.3799 26.02 14.0199 25.93ZM12.1499 20.71C12.7699 20.6 13.3699 20.48 13.9599 20.38C14.0599 20.36 14.0499 20.3 14.0499 20.23C14.0499 19.3 14.0499 18.37 14.0499 17.44C14.0499 17.25 13.9999 17.06 13.9299 16.89C13.7999 16.58 13.5099 16.45 13.1799 16.5C12.5499 16.61 12.1499 17.08 12.1499 17.72C12.1499 18.45 12.1499 19.17 12.1499 19.9C12.1499 20.17 12.1499 20.44 12.1499 20.72V20.71ZM11.0299 32.15C11.0299 32.15 11.0399 32.11 11.0399 32.1C11.0399 31.05 11.0499 29.99 11.0399 28.94C11.0399 28.73 10.9599 28.51 10.8499 28.33C10.5499 27.83 9.93992 27.84 9.60992 28.33C9.46992 28.54 9.41995 28.78 9.41995 29.04C9.41995 30.02 9.41995 31.01 9.41995 31.99C9.41995 32.04 9.41995 32.09 9.41995 32.15H11.0199H11.0299ZM11.0399 26.36C11.0399 25.47 11.0399 24.61 11.0399 23.75C11.0399 23.46 10.9299 23.2 10.7299 22.99C10.5399 22.78 10.3299 22.73 10.0699 22.84C9.65995 23 9.41995 23.35 9.41995 23.82C9.41995 24.73 9.41995 25.64 9.41995 26.55C9.41995 26.58 9.41994 26.62 9.43994 26.67C9.97994 26.57 10.5099 26.47 11.0499 26.38L11.0399 26.36ZM11.0599 20.97C11.0599 20.97 11.0599 20.93 11.0599 20.92C11.0599 20.07 11.0599 19.22 11.0599 18.37C11.0599 18.2 10.9999 18.01 10.9299 17.85C10.8199 17.59 10.5699 17.48 10.2999 17.55C10.1499 17.59 9.99993 17.65 9.86993 17.74C9.53993 17.99 9.42993 18.35 9.42993 18.75C9.42993 19.58 9.42993 20.41 9.42993 21.24C9.42993 21.3 9.42993 21.35 9.42993 21.42C9.97993 21.27 10.5099 21.12 11.0399 20.97H11.0599Z" fill="white"/>
<path d="M39.1 33.1H8.20996V31.96C8.20996 30.79 8.20996 29.62 8.20996 28.45C8.20996 28.45 8.20996 28.43 8.20996 28.42C8.14996 28.34 8.06997 28.27 7.99997 28.19L7.82996 28.01V27.59L7.98996 27.42C8.06996 27.34 8.13996 27.25 8.20996 27.17C8.20996 26.5 8.20996 25.83 8.20996 25.17C8.12996 25.03 8.03998 24.87 7.94998 24.71L7.82996 24.49V24C7.91996 23.71 8.04996 23.47 8.20996 23.27C8.20996 23.27 8.20996 23.26 8.20996 23.25C8.20996 22.93 8.20996 22.62 8.20996 22.3V22.27C7.99996 21.96 7.89996 21.62 7.82996 21.36V21.3V20.81L7.92996 20.54C7.99996 20.35 8.07996 20.16 8.14996 19.97L8.16998 19.92C8.16998 19.92 8.20996 19.82 8.20996 19.79C8.20996 18.98 8.20996 18.17 8.20996 17.36C8.20996 16.45 8.20996 15.54 8.20996 14.63C8.20996 14.47 8.25997 14.3 8.33997 14.18L8.46997 13.99C8.70997 13.63 8.95998 13.27 9.22998 12.92C10.5 11.34 12.02 10.11 13.75 9.26001C14.36 8.96001 15.02 8.71 15.85 8.47C16.33 8.33 16.67 8.48001 16.87 8.92001C16.91 9.01001 16.95 9.10999 16.98 9.20999C17.01 9.28999 17.04 9.37 17.07 9.44L17.66 10.81C17.97 11.53 18.28 12.26 18.59 12.98C18.66 13.15 18.77 13.27 18.92 13.37L18.99 13.41C19.06 13.46 19.14 13.5 19.21 13.54C19.62 13.76 19.87 14.11 19.97 14.56C20.2 15.7 20.42 16.72 20.63 17.67C20.71 18.04 20.82 18.43 20.97 18.83C21.01 18.93 21.04 18.96 21.05 18.97C21.06 18.97 21.12 18.97 21.23 18.91C21.35 18.84 21.48 18.77 21.63 18.73C21.8 18.68 22.33 18.52 22.69 19.01C22.89 19.29 23.17 19.43 23.57 19.47C23.91 19.5 24.1 19.49 24.27 19.33C24.41 19.19 24.61 19.13 24.76 19.09H24.79C25.29 18.93 25.79 18.92 26.17 18.92H26.19C26.29 18.71 26.49 18.57 26.72 18.56H26.83C27.12 18.54 27.42 18.52 27.72 18.54C29.42 18.67 30.95 18.85 32.39 19.1C33.56 19.31 35.1 19.62 36.61 20.2C37.56 20.57 38.25 20.94 38.83 21.42C39 21.56 39.07 21.72 39.07 21.93C39.07 22.39 39.07 22.86 39.07 23.21C39.07 23.21 39.07 23.24 39.08 23.24C39.61 23.86 39.61 24.56 39.1 25.18C39.1 25.19 39.08 25.22 39.08 25.24C39.08 25.56 39.08 25.88 39.08 26.19C39.08 26.49 39.08 26.79 39.08 27.09C39.08 27.11 39.08 27.12 39.08 27.12C39.08 27.12 39.08 27.12 39.1 27.14C39.42 27.37 39.49 27.62 39.49 27.78C39.49 27.94 39.42 28.19 39.1 28.42C39.1 28.42 39.09 28.43 39.08 28.43C39.08 28.43 39.08 28.43 39.08 28.45C39.08 29.58 39.09 30.71 39.1 31.83V32.75V33.07V33.1ZM8.72998 32.58H38.58V31.86C38.58 30.73 38.57 29.6 38.56 28.48C38.56 28.28 38.63 28.14 38.79 28.02C38.9 27.94 38.96 27.86 38.96 27.8C38.96 27.74 38.9 27.66 38.79 27.58C38.63 27.46 38.55 27.31 38.55 27.11C38.55 26.81 38.55 26.51 38.55 26.21C38.55 25.89 38.55 25.57 38.55 25.25C38.55 25.11 38.61 24.97 38.69 24.86C39.04 24.44 39.04 24.01 38.68 23.59C38.6 23.5 38.55 23.36 38.54 23.23C38.54 22.87 38.53 22.4 38.54 21.93C38.54 21.87 38.54 21.86 38.49 21.82C37.96 21.38 37.32 21.03 36.42 20.68C34.96 20.12 33.45 19.81 32.3 19.61C30.88 19.36 29.36 19.18 27.68 19.05C27.41 19.03 27.15 19.05 26.86 19.06H26.75C26.7 19.07 26.67 19.09 26.65 19.14C26.53 19.43 26.26 19.42 26.15 19.42C25.64 19.42 25.26 19.45 24.93 19.56H24.9C24.8 19.6 24.67 19.64 24.62 19.69C24.25 20.05 23.8 20.01 23.51 19.97C22.98 19.91 22.56 19.69 22.27 19.3C22.18 19.18 22.07 19.13 21.78 19.21C21.69 19.24 21.6 19.29 21.5 19.34C21.26 19.47 21.05 19.5 20.87 19.44C20.7 19.37 20.56 19.22 20.48 18.99C20.33 18.57 20.21 18.16 20.13 17.77C19.92 16.81 19.7 15.79 19.47 14.65C19.41 14.34 19.25 14.13 18.97 13.98C18.89 13.93 18.8 13.88 18.72 13.83L18.66 13.79C18.41 13.64 18.24 13.43 18.12 13.16C17.81 12.44 17.5 11.71 17.19 10.99L16.6 9.61999C16.56 9.53999 16.53 9.44998 16.5 9.35998C16.47 9.26998 16.44 9.19 16.4 9.1C16.32 8.92 16.25 8.86 16 8.94C15.2 9.17 14.56 9.42001 13.98 9.70001C12.32 10.51 10.86 11.7 9.63998 13.22C9.37998 13.55 9.13996 13.91 8.89996 14.25L8.76996 14.44C8.76996 14.44 8.72998 14.55 8.72998 14.6C8.72998 15.51 8.72998 16.42 8.72998 17.33C8.72998 18.14 8.72998 18.95 8.72998 19.76C8.72998 19.88 8.68996 19.99 8.64996 20.08L8.62997 20.12C8.55997 20.31 8.47997 20.5 8.40997 20.69L8.33997 20.87V21.23C8.41997 21.56 8.51997 21.78 8.65997 21.97C8.72997 22.07 8.72998 22.18 8.72998 22.24C8.72998 22.58 8.72998 22.89 8.72998 23.21C8.72998 23.28 8.72997 23.42 8.62997 23.53C8.49997 23.67 8.40998 23.84 8.34998 24.06V24.3L8.40997 24.4C8.49997 24.56 8.58996 24.72 8.67996 24.88C8.71996 24.95 8.73996 25.03 8.73996 25.11C8.73996 25.79 8.73996 26.47 8.73996 27.15C8.73996 27.28 8.65996 27.39 8.61996 27.45C8.53996 27.54 8.45997 27.63 8.37997 27.72L8.35995 27.76L8.37997 27.79C8.45997 27.88 8.54996 27.97 8.61996 28.06C8.68996 28.15 8.72996 28.28 8.73996 28.4C8.73996 29.57 8.73996 30.74 8.73996 31.91V32.53L8.72998 32.58ZM17.33 32.41H15.01L14.99 32.13C14.99 32.13 14.99 32.05 14.99 32.01V31.41C14.99 30.31 14.99 29.2 14.99 28.1C14.99 27.55 15.31 27.08 15.83 26.88C16.34 26.68 16.93 26.83 17.29 27.24C17.5 27.48 17.61 27.74 17.61 28.03C17.61 29.13 17.61 30.23 17.61 31.34V32.08C17.61 32.08 17.61 32.15 17.6 32.17L17.56 32.38L17.34 32.4L17.33 32.41ZM15.49 31.9H17.08V31.35C17.08 30.25 17.08 29.15 17.08 28.05C17.08 27.89 17.02 27.75 16.89 27.6C16.67 27.35 16.31 27.26 16 27.38C15.68 27.5 15.49 27.77 15.49 28.12C15.49 29.22 15.49 30.32 15.49 31.43V31.9ZM11.03 32.41H9.17996L9.15997 32.12C9.15997 32.12 9.15997 32.04 9.15997 32V30.96C9.15997 30.32 9.15997 29.69 9.15997 29.05C9.15997 28.72 9.23998 28.44 9.38998 28.2C9.58998 27.89 9.89998 27.71 10.23 27.71C10.23 27.71 10.24 27.71 10.25 27.71C10.58 27.71 10.88 27.9 11.06 28.21C11.2 28.44 11.28 28.71 11.29 28.95C11.3 29.74 11.3 30.54 11.29 31.32V32.15L11.23 32.41L11.02 32.43L11.03 32.41ZM9.66998 31.9H10.78V31.31C10.78 30.54 10.78 29.74 10.78 28.95C10.78 28.8 10.72 28.62 10.63 28.47C10.53 28.31 10.4 28.22 10.25 28.22C10.1 28.22 9.94997 28.31 9.83997 28.47C9.73997 28.62 9.68997 28.8 9.68997 29.03C9.68997 29.67 9.68997 30.3 9.68997 30.94V31.88L9.66998 31.9ZM14.01 32.41H11.89L11.87 32.13C11.87 32.13 11.87 32.06 11.87 32.03V31.16C11.87 30.26 11.87 29.37 11.87 28.47C11.87 27.9 12.23 27.4 12.75 27.24C13.1 27.14 13.48 27.2 13.78 27.43C14.1 27.66 14.28 28.03 14.29 28.43C14.3 29.3 14.29 30.19 14.29 31.05C14.29 31.4 14.29 31.75 14.29 32.1V32.14L14.21 32.38L14.02 32.4L14.01 32.41ZM12.38 31.89H13.76C13.76 31.61 13.76 31.33 13.76 31.05C13.76 30.19 13.76 29.31 13.76 28.44C13.76 28.2 13.65 27.99 13.47 27.85C13.3 27.72 13.09 27.69 12.89 27.74C12.59 27.83 12.38 28.13 12.38 28.47C12.38 29.37 12.38 30.26 12.38 31.16V31.89ZM35.02 32.41H32.39V30.49C32.39 29.7 32.39 28.91 32.39 28.11C32.39 27.67 32.61 27.26 32.97 27.02C33.33 26.78 33.8 26.74 34.21 26.91C34.68 27.11 34.96 27.48 35.01 27.98C35.02 28.11 35.02 28.24 35.02 28.37V28.47V31.09V32.42V32.41ZM32.91 31.89H34.5V31.08V28.46V28.36C34.5 28.24 34.5 28.13 34.5 28.03C34.47 27.72 34.31 27.51 34.02 27.39C33.76 27.28 33.49 27.31 33.27 27.46C33.05 27.61 32.92 27.85 32.92 28.13C32.92 28.92 32.92 29.71 32.92 30.5V31.9L32.91 31.89ZM24.82 32.41H22.21V27.65C22.21 26.98 22.51 26.53 23.1 26.32C23.69 26.1 24.39 26.26 24.78 26.72C24.98 26.95 25.08 27.22 25.08 27.51C25.08 28.79 25.08 30.06 25.08 31.34V32.08C25.08 32.08 25.08 32.16 25.07 32.18L25.03 32.39H24.81L24.82 32.41ZM22.73 31.89H24.57V31.34C24.57 30.06 24.57 28.79 24.57 27.51C24.57 27.34 24.51 27.19 24.39 27.06C24.13 26.76 23.68 26.66 23.28 26.81C22.9 26.95 22.73 27.21 22.73 27.66V30.77V31.9V31.89ZM21.25 32.41H18.38V31.96C18.38 31.55 18.38 31.14 18.38 30.73C18.38 29.79 18.39 28.81 18.36 27.86C18.34 27.37 18.55 26.93 18.94 26.66C19.35 26.37 19.9 26.3 20.38 26.49C20.94 26.71 21.25 27.16 21.25 27.75V30.8V32.41ZM18.89 31.89H20.73V30.8V27.75C20.73 27.37 20.55 27.11 20.19 26.97C19.88 26.85 19.51 26.89 19.24 27.08C19 27.25 18.87 27.52 18.88 27.84C18.91 28.81 18.91 29.79 18.9 30.73C18.9 31.12 18.9 31.5 18.9 31.89H18.89ZM38.11 32.41H35.74L35.72 32.12C35.72 32.12 35.72 32.05 35.72 32.02V30.87C35.72 30.08 35.72 29.3 35.72 28.51C35.72 28.23 35.79 27.97 35.94 27.75C36.21 27.34 36.7 27.12 37.15 27.22C37.65 27.33 38.04 27.74 38.12 28.25C38.14 28.35 38.14 28.45 38.14 28.54C38.14 29.69 38.14 30.85 38.14 32C38.14 32.04 38.14 32.07 38.14 32.11L38.12 32.39L38.11 32.41ZM36.24 31.89H37.62C37.62 30.78 37.62 29.66 37.62 28.55C37.62 28.49 37.62 28.41 37.6 28.34C37.55 28.04 37.33 27.8 37.04 27.74C36.79 27.69 36.52 27.81 36.37 28.05C36.28 28.19 36.24 28.34 36.24 28.52C36.24 29.31 36.24 30.09 36.24 30.88V31.9V31.89ZM31.58 32.41H28.74V27.81C28.74 27.14 29.08 26.66 29.7 26.46C30.34 26.26 31.03 26.47 31.4 26.98C31.55 27.19 31.63 27.43 31.63 27.7C31.63 29.15 31.63 30.59 31.63 32.04C31.63 32.08 31.63 32.11 31.62 32.15L31.59 32.41H31.58ZM29.26 31.89H31.1C31.1 30.49 31.1 29.1 31.1 27.7C31.1 27.54 31.06 27.41 30.97 27.28C30.74 26.96 30.27 26.82 29.85 26.95C29.45 27.08 29.25 27.36 29.25 27.81V30.82V31.9L29.26 31.89ZM9.20996 26.96L9.16998 26.66C9.16998 26.66 9.15997 26.58 9.15997 26.54V25.9C9.15997 25.2 9.15997 24.5 9.15997 23.8C9.15997 23.23 9.46998 22.78 9.97998 22.58C10.34 22.44 10.66 22.51 10.92 22.8C11.16 23.07 11.29 23.39 11.3 23.74C11.3 24.36 11.3 24.98 11.3 25.61V26.57L9.20996 26.95V26.96ZM10.31 23.04C10.31 23.04 10.22 23.05 10.16 23.07C9.84997 23.19 9.67998 23.45 9.66998 23.81C9.66998 24.51 9.66998 25.21 9.66998 25.9V26.34L10.77 26.14V25.61C10.77 24.98 10.77 24.36 10.77 23.75C10.77 23.53 10.69 23.33 10.53 23.16C10.45 23.08 10.39 23.04 10.31 23.04ZM38.11 26.74L36.58 26.49C36.41 26.46 36.23 26.44 36.06 26.41C35.84 26.38 35.72 26.24 35.72 26.02C35.72 25.67 35.72 25.31 35.72 24.96C35.72 24.34 35.72 23.73 35.72 23.11C35.72 22.46 36.25 21.92 36.88 21.89C37.49 21.87 38.04 22.36 38.11 23.01C38.11 23.09 38.13 23.17 38.13 23.25C38.13 24.26 38.13 25.27 38.13 26.28C38.13 26.32 38.13 26.35 38.13 26.4L38.11 26.74ZM36.24 25.92C36.38 25.94 36.52 25.96 36.67 25.98L37.63 26.13C37.63 25.17 37.63 24.21 37.63 23.25C37.63 23.19 37.63 23.13 37.62 23.08C37.57 22.7 37.27 22.4 36.92 22.42C36.56 22.43 36.26 22.75 36.25 23.13C36.25 23.74 36.25 24.36 36.25 24.97C36.25 25.29 36.25 25.6 36.25 25.92H36.24ZM11.88 26.48L11.86 26.15C11.86 26.15 11.86 26.07 11.86 26.03V25.38C11.86 24.6 11.86 23.82 11.86 23.05C11.86 22.33 12.39 21.77 13.11 21.71C13.7 21.67 14.13 22.03 14.25 22.67C14.27 22.8 14.28 22.94 14.29 23.09C14.29 23.77 14.29 24.45 14.29 25.13V26.15L11.89 26.47L11.88 26.48ZM13.21 22.23C13.21 22.23 13.17 22.23 13.15 22.23C12.7 22.27 12.38 22.6 12.38 23.05C12.38 23.83 12.38 24.61 12.38 25.38V25.89L13.77 25.7V25.13C13.77 24.45 13.77 23.77 13.77 23.09C13.77 22.97 13.77 22.86 13.74 22.76C13.7 22.51 13.57 22.22 13.21 22.22V22.23ZM35.02 26.26L32.41 25.97L32.39 25.71C32.39 25.71 32.39 25.64 32.39 25.6V24.88C32.39 24.03 32.39 23.18 32.39 22.33C32.39 21.79 32.66 21.37 33.13 21.14C33.61 20.91 34.11 20.97 34.53 21.3C34.82 21.52 34.98 21.83 35 22.18C35.01 22.39 35.01 22.59 35.01 22.79V22.92V24.99V26.25L35.02 26.26ZM32.91 25.5L34.5 25.68V25V22.93V22.79C34.5 22.59 34.5 22.4 34.49 22.21C34.48 22.01 34.39 21.84 34.22 21.71C33.95 21.5 33.66 21.46 33.36 21.61C33.06 21.75 32.91 21.99 32.91 22.33C32.91 23.18 32.91 24.03 32.91 24.88V25.5ZM15.01 26.07L14.98 25.77C14.98 25.77 14.98 25.69 14.98 25.66V24.84C14.98 24 14.98 23.15 14.98 22.31C14.98 21.93 15.19 21.55 15.53 21.29C15.88 21.03 16.3 20.93 16.67 21.04C17.19 21.18 17.59 21.71 17.6 22.26C17.6 22.66 17.6 23.06 17.6 23.46V23.93V25.11V25.84L15.01 26.08V26.07ZM16.36 21.52C16.19 21.52 16 21.59 15.84 21.71C15.63 21.87 15.5 22.1 15.5 22.32C15.5 23.16 15.5 24.01 15.5 24.85V25.52L17.09 25.37V25.12V23.94V23.47C17.09 23.07 17.09 22.68 17.09 22.28C17.09 21.96 16.84 21.64 16.54 21.56C16.49 21.55 16.43 21.54 16.37 21.54L16.36 21.52ZM31.59 25.9L28.77 25.7L28.75 25.44C28.75 25.44 28.75 25.36 28.75 25.32V24.57C28.75 23.6 28.75 22.62 28.75 21.65C28.75 20.96 29.25 20.41 29.97 20.32C30.72 20.22 31.39 20.62 31.58 21.27C31.61 21.38 31.63 21.51 31.63 21.64C31.63 22.8 31.63 23.95 31.63 25.11V25.5C31.63 25.5 31.63 25.56 31.63 25.6L31.61 25.9H31.59ZM29.26 25.21L31.1 25.34V25.1C31.1 23.94 31.1 22.79 31.1 21.63C31.1 21.55 31.09 21.47 31.07 21.4C30.96 21.01 30.51 20.76 30.02 20.82C29.56 20.88 29.26 21.21 29.26 21.64C29.26 22.61 29.26 23.59 29.26 24.56V25.2V25.21ZM18.38 25.78V24.31C18.38 23.44 18.38 22.57 18.38 21.69C18.38 21.2 18.59 20.83 19.01 20.59C19.28 20.44 19.69 20.24 20.17 20.31C20.77 20.4 21.24 20.92 21.25 21.5C21.26 22.43 21.25 23.38 21.25 24.3V25.4L21.16 25.62L20.99 25.65L18.38 25.79V25.78ZM19.96 20.81C19.75 20.81 19.53 20.88 19.26 21.04C19 21.19 18.89 21.39 18.89 21.69C18.89 22.56 18.89 23.44 18.89 24.31V25.24L20.72 25.14V24.3C20.72 23.38 20.72 22.44 20.72 21.51C20.72 21.19 20.43 20.88 20.09 20.83C20.05 20.83 20 20.83 19.96 20.83V20.81ZM9.18997 21.76V18.75C9.18997 18.21 9.36998 17.81 9.72998 17.54C9.89998 17.41 10.11 17.34 10.25 17.3C10.65 17.2 11.02 17.38 11.18 17.75C11.24 17.9 11.32 18.13 11.33 18.37C11.33 19.01 11.33 19.65 11.33 20.29V20.93C11.33 20.93 11.33 21 11.32 21.02L11.28 21.17L11.13 21.23L9.18997 21.77V21.76ZM10.46 17.78C10.46 17.78 10.4 17.78 10.37 17.79C10.23 17.83 10.12 17.88 10.03 17.94C9.79997 18.11 9.68998 18.36 9.69998 18.74V21.07L10.81 20.77V20.28C10.81 19.64 10.81 19 10.81 18.37C10.81 18.25 10.77 18.1 10.71 17.95C10.66 17.84 10.58 17.78 10.47 17.78H10.46ZM11.89 21.02V19.24C11.89 18.73 11.89 18.22 11.89 17.71C11.89 16.95 12.38 16.37 13.13 16.24C13.59 16.16 14 16.37 14.17 16.78C14.26 16.99 14.3 17.22 14.31 17.43C14.31 18.1 14.31 18.78 14.31 19.45V20.23C14.31 20.54 14.12 20.62 14 20.64C13.56 20.72 13.12 20.8 12.67 20.88L11.88 21.03L11.89 21.02ZM13.33 16.74C13.33 16.74 13.26 16.74 13.23 16.74C12.72 16.83 12.42 17.19 12.41 17.7C12.41 18.21 12.41 18.72 12.41 19.23V20.39L12.59 20.36C13 20.28 13.4 20.21 13.8 20.14V19.44C13.8 18.77 13.8 18.1 13.8 17.43C13.8 17.28 13.76 17.12 13.7 16.97C13.62 16.77 13.45 16.73 13.33 16.73V16.74ZM15.01 20.46V19.12C15.01 18.39 15.01 17.65 15.01 16.92C15.01 16.46 15.21 16.1 15.59 15.89C15.83 15.76 16.08 15.67 16.31 15.63C16.64 15.57 16.96 15.65 17.21 15.85C17.47 16.05 17.62 16.36 17.64 16.7C17.65 16.94 17.65 17.18 17.65 17.42V17.62C17.65 18.12 17.65 18.63 17.65 19.13V20.15L15.02 20.47L15.01 20.46ZM16.5 16.13C16.5 16.13 16.42 16.13 16.38 16.14C16.21 16.17 16.02 16.24 15.83 16.35C15.61 16.47 15.52 16.65 15.52 16.92C15.52 17.66 15.52 18.39 15.52 19.13V19.88L17.11 19.69V19.13C17.11 18.63 17.11 18.12 17.11 17.62V17.41C17.11 17.18 17.11 16.95 17.1 16.72C17.09 16.52 17.01 16.36 16.87 16.25C16.77 16.17 16.64 16.12 16.5 16.12V16.13Z" fill="white"/>
</svg>
