<svg width="47" height="59" viewBox="0 0 47 59" fill="none" xmlns="http://www.w3.org/2000/svg">
<path d="M45.66 23.15C45.66 32.4 33.1 48.71 26.81 56.28C25 58.46 21.66 58.46 19.87 56.28C13.6 48.71 1.02002 32.4 1.02002 23.15C1.02002 10.82 11.02 0.839996 23.33 0.839996C35.64 0.839996 45.64 10.84 45.64 23.15H45.65H45.66Z" fill="#333333"/>
<path d="M23.33 58.41C21.84 58.41 20.44 57.74 19.49 56.59C12.41 48.04 0.530029 32.33 0.530029 23.15C0.530029 10.57 10.76 0.339996 23.34 0.339996C35.92 0.339996 45.88 10.3 46.14 22.65V23.15C46.15 32.38 34.27 48.07 27.19 56.6C26.23 57.75 24.83 58.41 23.33 58.41ZM23.34 1.34C11.31 1.34 1.53003 11.12 1.53003 23.15C1.53003 32.35 14.63 49.16 20.26 55.96C21.02 56.88 22.14 57.41 23.33 57.41C24.53 57.41 25.65 56.88 26.42 55.96C31.95 49.3 44.69 33 45.14 23.65V23.15C45.14 11.12 35.36 1.34 23.33 1.34H23.34Z" fill="white"/>
<path d="M24.05 10.35L24.29 11.01C24.38 11.26 24.62 11.42 24.88 11.41L25.58 11.39C26.17 11.37 26.43 12.11 25.97 12.47L25.42 12.9C25.21 13.06 25.13 13.34 25.22 13.58L25.46 14.24C25.66 14.79 25.04 15.28 24.55 14.95L23.97 14.56C23.75 14.41 23.47 14.42 23.26 14.58L22.71 15.01C22.25 15.37 21.59 14.93 21.76 14.36L21.95 13.69C22.02 13.44 21.92 13.17 21.71 13.02L21.13 12.63C20.64 12.3 20.86 11.54 21.45 11.52L22.15 11.5C22.41 11.5 22.64 11.31 22.71 11.06L22.9 10.39C23.06 9.83001 23.85 9.8 24.05 10.35Z" fill="white"/>
<path d="M24.05 31.81L24.29 32.47C24.38 32.72 24.62 32.88 24.88 32.87L25.58 32.85C26.17 32.83 26.43 33.57 25.97 33.93L25.42 34.36C25.21 34.52 25.13 34.8 25.22 35.04L25.46 35.7C25.66 36.25 25.04 36.74 24.55 36.41L23.97 36.02C23.75 35.87 23.47 35.88 23.26 36.04L22.71 36.47C22.25 36.83 21.59 36.39 21.76 35.82L21.95 35.15C22.02 34.9 21.92 34.63 21.71 34.48L21.13 34.09C20.64 33.76 20.86 33 21.45 32.98L22.15 32.96C22.41 32.96 22.64 32.77 22.71 32.52L22.9 31.85C23.06 31.29 23.85 31.26 24.05 31.81Z" fill="white"/>
<path d="M34.48 21.98L34.72 22.64C34.81 22.89 35.05 23.05 35.31 23.04L36.01 23.02C36.6 23 36.86 23.74 36.4 24.1L35.85 24.53C35.64 24.69 35.56 24.97 35.65 25.21L35.89 25.87C36.09 26.42 35.47 26.91 34.98 26.58L34.4 26.19C34.18 26.04 33.9 26.05 33.69 26.21L33.14 26.64C32.68 27 32.02 26.56 32.19 25.99L32.38 25.32C32.45 25.07 32.35 24.8 32.14 24.65L31.56 24.26C31.07 23.93 31.29 23.17 31.88 23.15L32.58 23.13C32.84 23.13 33.07 22.94 33.14 22.69L33.33 22.02C33.49 21.46 34.28 21.43 34.48 21.98Z" fill="white"/>
<path d="M12.21 21.98L12.45 22.64C12.54 22.89 12.78 23.05 13.04 23.04L13.74 23.02C14.33 23 14.59 23.74 14.13 24.1L13.58 24.53C13.37 24.69 13.29 24.97 13.38 25.21L13.62 25.87C13.82 26.42 13.2 26.91 12.71 26.58L12.13 26.19C11.91 26.04 11.63 26.05 11.42 26.21L10.87 26.64C10.41 27 9.75002 26.56 9.92002 25.99L10.11 25.32C10.18 25.07 10.08 24.8 9.87 24.65L9.29002 24.26C8.80002 23.93 9.01999 23.17 9.60999 23.15L10.31 23.13C10.57 23.13 10.8 22.94 10.87 22.69L11.06 22.02C11.22 21.46 12.01 21.43 12.21 21.98Z" fill="white"/>
<path d="M13.5 10.26C14.55 10.29 15.72 10.72 16.8 11.43C18.71 12.69 20.1 14.36 20.71 16.61C20.94 17.45 20.96 18.3 20.69 19.15C20.66 19.25 20.71 19.42 20.79 19.49C23.06 21.63 25.34 23.75 27.61 25.89C30.55 28.66 33.48 31.43 36.42 34.2C36.59 34.36 36.65 34.52 36.64 34.75C36.58 35.85 35.57 36.84 34.46 36.84C34.3 36.84 34.11 36.73 34 36.62C32.07 34.6 30.16 32.56 28.24 30.53C25.27 27.37 22.3 24.21 19.34 21.05C19.2 20.9 19.08 20.85 18.87 20.92C17.63 21.3 16.43 21.08 15.29 20.54C12.77 19.35 11.03 17.47 10.24 14.76C10.04 14.06 10 13.34 10.16 12.63C10.49 11.15 11.63 10.29 13.52 10.28L13.5 10.26Z" fill="white"/>
<path d="M24.5301 23.67C23.9501 23.12 23.4001 22.59 22.8201 22.04C23.2101 21.67 24.45 20.49 24.83 20.13C25.19 19.79 25.5401 19.43 25.9201 19.11C26.7601 18.39 27.1101 17.47 27.1801 16.39C27.2201 15.81 27.3101 15.22 27.4901 14.66C27.6801 14.07 28.1201 13.62 28.6401 13.25C30.1701 12.16 31.7001 11.07 33.2301 9.98C33.4201 9.85 33.6 9.76 33.7701 9.98C33.9401 10.2 33.8201 10.36 33.6601 10.52C32.3701 11.8 31.08 13.09 29.8 14.38C29.75 14.43 29.7001 14.48 29.6501 14.53C29.4901 14.69 29.44 14.88 29.61 15.05C29.78 15.22 29.9701 15.18 30.1301 15.01C30.5701 14.57 31.0201 14.13 31.4601 13.68C32.3501 12.79 33.2301 11.91 34.1201 11.02C34.2901 10.85 34.4601 10.66 34.7001 10.9C34.9301 11.13 34.7601 11.31 34.5901 11.49C33.3001 12.78 32.0101 14.06 30.7301 15.35C30.7001 15.38 30.6701 15.42 30.6301 15.45C30.4601 15.61 30.3701 15.79 30.5601 15.99C30.7501 16.19 30.9301 16.11 31.1001 15.94C31.7301 15.31 32.3601 14.68 33.0001 14.05C33.7101 13.35 34.41 12.64 35.11 11.93C35.28 11.76 35.4501 11.67 35.6501 11.85C35.8801 12.06 35.7401 12.23 35.5701 12.41C34.2701 13.7 32.9801 15 31.6801 16.29C31.6401 16.33 31.6001 16.37 31.5601 16.41C31.3801 16.58 31.3301 16.77 31.5301 16.95C31.7101 17.12 31.89 17.06 32.05 16.9C32.64 16.31 33.2301 15.72 33.8201 15.13C34.5701 14.38 35.3101 13.64 36.0601 12.89C36.2201 12.73 36.3801 12.59 36.6001 12.77C36.8301 12.96 36.72 13.16 36.58 13.35C35.54 14.81 34.4801 16.26 33.4601 17.75C32.7401 18.81 31.7501 19.34 30.5001 19.34C29.1901 19.34 28.15 19.81 27.3 20.8C26.71 21.49 25.1901 22.95 24.5401 23.64L24.5301 23.67Z" fill="white"/>
<path d="M21.69 23.17C22.29 23.8 22.86 24.4 23.45 25.02C22.5 26.02 21 27.49 20.07 28.47C17.51 31.17 14.96 33.88 12.4 36.57C12.3 36.67 12.13 36.75 11.99 36.75C10.83 36.74 9.80001 35.69 9.81001 34.53C9.81001 34.41 9.89002 34.27 9.98002 34.18C12.1 32.16 14.24 30.15 16.37 28.13C17.86 26.72 19.35 25.31 20.84 23.9C20.92 23.82 21.58 23.27 21.69 23.17Z" fill="white"/>
</svg>
